STARTFONT 2.1
FONT -FontForge-Indie Flower-Book-R-Normal--18-180-72-72-P-82-ISO10646-1
SIZE 18 72 72
FONTBOUNDINGBOX 22 26 -2 -9
COMMENT "Generated by fontforge, http://fontforge.sourceforge.net"
COMMENT "Copyright (c) 2010, Kimberly Geswein (kimberlygeswein.com)"
STARTPROPERTIES 39
FOUNDRY "FontForge"
FAMILY_NAME "Indie Flower"
WEIGHT_NAME "Book"
SLANT "R"
SETWIDTH_NAME "Normal"
ADD_STYLE_NAME ""
PIXEL_SIZE 18
POINT_SIZE 180
RESOLUTION_X 72
RESOLUTION_Y 72
SPACING "P"
AVERAGE_WIDTH 82
CHARSET_REGISTRY "ISO10646"
CHARSET_ENCODING "1"
FONTNAME_REGISTRY ""
CHARSET_COLLECTIONS "ISO8859-2 ISO8859-9 ISO8859-4 ISO10646-1"
FONT_NAME "IndieFlower"
FACE_NAME "Indie Flower"
COPYRIGHT "Copyright (c) 2010, Kimberly Geswein (kimberlygeswein.com)"
FONT_VERSION "1.001 2010"
FONT_ASCENT 14
FONT_DESCENT 4
UNDERLINE_POSITION -2
UNDERLINE_THICKNESS 1
X_HEIGHT 6
CAP_HEIGHT 8
RAW_ASCENT 799
RAW_DESCENT 200
NORM_SPACE 7
RELATIVE_WEIGHT 40
RELATIVE_SETWIDTH 50
SUPERSCRIPT_X 0
SUPERSCRIPT_Y 8
SUPERSCRIPT_SIZE 11
SUBSCRIPT_X 0
SUBSCRIPT_Y 2
SUBSCRIPT_SIZE 11
AVG_LOWERCASE_WIDTH 80
AVG_UPPERCASE_WIDTH 95
ENDPROPERTIES
CHARS 356
STARTCHAR space
ENCODING 32
SWIDTH 375 0
DWIDTH 7 0
BBX 1 1 0 0
BITMAP
00
ENDCHAR
STARTCHAR exclam
ENCODING 33
SWIDTH 149 0
DWIDTH 3 0
BBX 2 15 0 0
BITMAP
40
40
40
40
40
40
40
40
40
40
00
00
00
40
C0
ENDCHAR
STARTCHAR quotedbl
ENCODING 34
SWIDTH 234 0
DWIDTH 4 0
BBX 4 5 0 9
BITMAP
A0
90
90
50
50
ENDCHAR
STARTCHAR numbersign
ENCODING 35
SWIDTH 768 0
DWIDTH 14 0
BBX 13 9 0 0
BITMAP
0500
0480
04F0
1F98
E280
07F8
3A80
02C0
0080
ENDCHAR
STARTCHAR dollar
ENCODING 36
SWIDTH 581 0
DWIDTH 10 0
BBX 10 17 0 0
BITMAP
0400
0500
0500
0700
1D80
1500
1600
0E00
0700
0680
0A40
8A40
4A40
3E40
0E80
0F00
0C00
ENDCHAR
STARTCHAR percent
ENCODING 37
SWIDTH 636 0
DWIDTH 11 0
BBX 11 11 0 0
BITMAP
0040
6080
D900
8A00
9200
6400
0CE0
0920
1A20
1240
2180
ENDCHAR
STARTCHAR ampersand
ENCODING 38
SWIDTH 457 0
DWIDTH 8 0
BBX 8 13 0 0
BITMAP
20
18
18
18
10
10
37
34
54
4C
8C
94
62
ENDCHAR
STARTCHAR quotesingle
ENCODING 39
SWIDTH 102 0
DWIDTH 2 0
BBX 2 4 0 9
BITMAP
80
80
C0
40
ENDCHAR
STARTCHAR parenleft
ENCODING 40
SWIDTH 421 0
DWIDTH 8 0
BBX 7 11 0 -1
BITMAP
0E
10
20
40
40
40
80
80
40
60
18
ENDCHAR
STARTCHAR parenright
ENCODING 41
SWIDTH 290 0
DWIDTH 5 0
BBX 5 12 0 -1
BITMAP
40
20
10
18
08
08
08
10
10
20
60
C0
ENDCHAR
STARTCHAR asterisk
ENCODING 42
SWIDTH 412 0
DWIDTH 7 0
BBX 7 7 0 4
BITMAP
02
7C
3C
F8
6C
4C
08
ENDCHAR
STARTCHAR plus
ENCODING 43
SWIDTH 459 0
DWIDTH 8 0
BBX 8 8 0 0
BITMAP
10
10
10
1C
FF
08
08
08
ENDCHAR
STARTCHAR comma
ENCODING 44
SWIDTH 130 0
DWIDTH 2 0
BBX 2 6 0 -3
BITMAP
80
C0
40
40
80
80
ENDCHAR
STARTCHAR hyphen
ENCODING 45
SWIDTH 375 0
DWIDTH 7 0
BBX 6 2 0 4
BITMAP
7C
C0
ENDCHAR
STARTCHAR period
ENCODING 46
SWIDTH 204 0
DWIDTH 4 0
BBX 2 3 1 0
BITMAP
C0
C0
C0
ENDCHAR
STARTCHAR slash
ENCODING 47
SWIDTH 309 0
DWIDTH 6 0
BBX 5 14 0 0
BITMAP
08
08
08
08
10
10
10
30
20
20
40
40
C0
80
ENDCHAR
STARTCHAR zero
ENCODING 48
SWIDTH 430 0
DWIDTH 8 0
BBX 7 8 0 0
BITMAP
38
64
42
82
82
82
46
3C
ENDCHAR
STARTCHAR one
ENCODING 49
SWIDTH 318 0
DWIDTH 6 0
BBX 5 11 0 0
BITMAP
08
08
08
18
38
38
58
98
10
10
10
ENDCHAR
STARTCHAR two
ENCODING 50
SWIDTH 497 0
DWIDTH 9 0
BBX 8 10 0 0
BITMAP
0C
0A
11
01
01
03
02
C4
FC
77
ENDCHAR
STARTCHAR three
ENCODING 51
SWIDTH 430 0
DWIDTH 8 0
BBX 7 9 0 0
BITMAP
7C
04
0C
78
0C
02
C2
62
1C
ENDCHAR
STARTCHAR four
ENCODING 52
SWIDTH 412 0
DWIDTH 7 0
BBX 7 11 0 0
BITMAP
40
40
40
82
82
86
4E
7A
02
02
02
ENDCHAR
STARTCHAR five
ENCODING 53
SWIDTH 571 0
DWIDTH 10 0
BBX 10 12 0 0
BITMAP
0F80
1840
1000
1000
3800
0E00
0100
0080
8080
8080
4300
3E00
ENDCHAR
STARTCHAR six
ENCODING 54
SWIDTH 440 0
DWIDTH 8 0
BBX 7 11 0 0
BITMAP
06
1A
30
20
40
7C
C2
82
82
46
3C
ENDCHAR
STARTCHAR seven
ENCODING 55
SWIDTH 412 0
DWIDTH 7 0
BBX 7 10 0 0
BITMAP
40
B8
08
08
08
7E
08
08
10
10
ENDCHAR
STARTCHAR eight
ENCODING 56
SWIDTH 375 0
DWIDTH 7 0
BBX 6 10 0 0
BITMAP
78
C8
88
50
30
48
44
44
64
3C
ENDCHAR
STARTCHAR nine
ENCODING 57
SWIDTH 300 0
DWIDTH 5 0
BBX 5 11 0 0
BITMAP
70
88
88
88
58
38
08
08
08
08
08
ENDCHAR
STARTCHAR colon
ENCODING 58
SWIDTH 84 0
DWIDTH 2 0
BBX 1 5 0 1
BITMAP
80
00
00
00
80
ENDCHAR
STARTCHAR semicolon
ENCODING 59
SWIDTH 128 0
DWIDTH 2 0
BBX 2 10 0 -3
BITMAP
80
C0
00
00
80
40
40
40
80
80
ENDCHAR
STARTCHAR less
ENCODING 60
SWIDTH 487 0
DWIDTH 9 0
BBX 8 7 0 0
BITMAP
03
04
18
20
40
FC
03
ENDCHAR
STARTCHAR equal
ENCODING 61
SWIDTH 524 0
DWIDTH 9 0
BBX 9 5 0 2
BITMAP
FF80
0000
0000
0000
FF00
ENDCHAR
STARTCHAR greater
ENCODING 62
SWIDTH 403 0
DWIDTH 7 0
BBX 7 8 0 0
BITMAP
C0
38
06
06
0C
18
60
C0
ENDCHAR
STARTCHAR question
ENCODING 63
SWIDTH 272 0
DWIDTH 5 0
BBX 5 16 0 0
BITMAP
40
F0
10
08
10
10
30
20
60
70
00
00
00
00
00
10
ENDCHAR
STARTCHAR at
ENCODING 64
SWIDTH 815 0
DWIDTH 15 0
BBX 14 16 0 0
BITMAP
0F80
1060
2010
4008
4004
83E4
8424
8844
8844
4844
48F8
2780
2000
1000
0C0C
03F0
ENDCHAR
STARTCHAR A
ENCODING 65
SWIDTH 562 0
DWIDTH 10 0
BBX 10 14 0 0
BITMAP
0C00
3200
4100
4100
4080
4080
4080
4080
FF80
4040
4040
4040
40C0
4080
ENDCHAR
STARTCHAR B
ENCODING 66
SWIDTH 741 0
DWIDTH 13 0
BBX 13 12 0 0
BITMAP
7F00
9080
0880
0880
0B00
09C0
0C20
0410
0408
0408
0C18
07F0
ENDCHAR
STARTCHAR C
ENCODING 67
SWIDTH 515 0
DWIDTH 9 0
BBX 9 12 0 0
BITMAP
0600
1E00
3200
2000
4000
8000
8000
8000
8000
4000
6380
3C00
ENDCHAR
STARTCHAR D
ENCODING 68
SWIDTH 741 0
DWIDTH 13 0
BBX 13 11 0 0
BITMAP
FF00
04C0
0420
0210
0210
0208
0208
0208
0210
0830
07C0
ENDCHAR
STARTCHAR E
ENCODING 69
SWIDTH 524 0
DWIDTH 9 0
BBX 9 11 0 0
BITMAP
7F00
4000
4000
4000
5F00
E000
8000
8000
8000
8100
7F80
ENDCHAR
STARTCHAR F
ENCODING 70
SWIDTH 514 0
DWIDTH 9 0
BBX 12 11 -1 0
BITMAP
1F80
F870
1000
1000
0800
1F80
2E00
0800
0800
0800
0C00
ENDCHAR
STARTCHAR G
ENCODING 71
SWIDTH 571 0
DWIDTH 10 0
BBX 9 10 1 -1
BITMAP
0F00
3000
4000
8000
9F00
8100
8100
C300
7D00
0080
ENDCHAR
STARTCHAR H
ENCODING 72
SWIDTH 524 0
DWIDTH 9 0
BBX 9 12 0 0
BITMAP
8100
8100
4100
4100
4100
4700
5900
6100
C080
4080
4080
4080
ENDCHAR
STARTCHAR I
ENCODING 73
SWIDTH 167 0
DWIDTH 3 0
BBX 3 10 0 0
BITMAP
80
80
40
40
40
40
40
60
20
20
ENDCHAR
STARTCHAR J
ENCODING 74
SWIDTH 439 0
DWIDTH 8 0
BBX 8 13 0 0
BITMAP
04
02
02
02
02
02
02
81
41
41
22
12
0E
ENDCHAR
STARTCHAR K
ENCODING 75
SWIDTH 468 0
DWIDTH 8 0
BBX 8 11 0 0
BITMAP
84
8C
98
B0
60
40
60
70
48
46
43
ENDCHAR
STARTCHAR L
ENCODING 76
SWIDTH 346 0
DWIDTH 6 0
BBX 6 10 0 0
BITMAP
40
40
40
40
C0
80
80
80
40
7C
ENDCHAR
STARTCHAR M
ENCODING 77
SWIDTH 534 0
DWIDTH 10 0
BBX 9 11 0 0
BITMAP
C100
4100
6300
7F00
4900
4100
4080
4080
4080
4080
4080
ENDCHAR
STARTCHAR N
ENCODING 78
SWIDTH 609 0
DWIDTH 11 0
BBX 10 10 1 0
BITMAP
8000
8100
8100
8180
C080
C080
A0C0
B080
9980
8700
ENDCHAR
STARTCHAR O
ENCODING 79
SWIDTH 609 0
DWIDTH 11 0
BBX 10 9 0 0
BITMAP
1800
6600
4180
80C0
8040
8040
4040
20C0
1F00
ENDCHAR
STARTCHAR P
ENCODING 80
SWIDTH 627 0
DWIDTH 11 0
BBX 11 11 0 0
BITMAP
3C00
C380
8840
0820
0820
0860
0FC0
0600
0400
0400
0400
ENDCHAR
STARTCHAR Q
ENCODING 81
SWIDTH 642 0
DWIDTH 12 0
BBX 12 12 0 -2
BITMAP
1C00
2600
4380
42C0
8040
8020
4620
4220
33C0
1F80
0040
0030
ENDCHAR
STARTCHAR R
ENCODING 82
SWIDTH 579 0
DWIDTH 10 0
BBX 10 12 0 -1
BITMAP
FF00
8180
A080
2080
2700
3800
1000
1800
1400
1200
1180
0040
ENDCHAR
STARTCHAR S
ENCODING 83
SWIDTH 627 0
DWIDTH 11 0
BBX 11 11 0 0
BITMAP
0F00
10C0
2000
1000
0800
0600
0180
8040
4020
6060
1FC0
ENDCHAR
STARTCHAR T
ENCODING 84
SWIDTH 581 0
DWIDTH 10 0
BBX 12 11 0 0
BITMAP
FFE0
0410
0200
0200
0200
0200
0200
0200
0200
0300
0100
ENDCHAR
STARTCHAR U
ENCODING 85
SWIDTH 571 0
DWIDTH 10 0
BBX 10 10 0 0
BITMAP
4100
8100
8100
8100
8080
4080
4080
41C0
2240
1C00
ENDCHAR
STARTCHAR V
ENCODING 86
SWIDTH 421 0
DWIDTH 8 0
BBX 7 9 0 0
BITMAP
C2
42
42
22
26
34
14
1C
08
ENDCHAR
STARTCHAR W
ENCODING 87
SWIDTH 703 0
DWIDTH 13 0
BBX 12 9 0 0
BITMAP
8020
8020
8030
8410
8410
4410
4610
4B30
30E0
ENDCHAR
STARTCHAR X
ENCODING 88
SWIDTH 534 0
DWIDTH 10 0
BBX 9 10 0 -1
BITMAP
2080
2100
1200
1C00
1800
3C00
2400
4200
4100
8000
ENDCHAR
STARTCHAR Y
ENCODING 89
SWIDTH 403 0
DWIDTH 7 0
BBX 7 12 0 0
BITMAP
80
82
42
66
3C
0C
0C
08
08
08
10
08
ENDCHAR
STARTCHAR Z
ENCODING 90
SWIDTH 571 0
DWIDTH 10 0
BBX 10 11 0 0
BITMAP
7C00
8200
0200
0200
0200
1F80
2400
0800
0800
11C0
1F00
ENDCHAR
STARTCHAR bracketleft
ENCODING 91
SWIDTH 477 0
DWIDTH 9 0
BBX 10 15 0 -2
BITMAP
0300
1C00
E000
4000
4000
4000
4000
2000
2000
2000
2000
2000
2000
3FC0
2000
ENDCHAR
STARTCHAR backslash
ENCODING 92
SWIDTH 430 0
DWIDTH 8 0
BBX 7 10 0 0
BITMAP
80
40
60
30
10
08
0C
06
02
02
ENDCHAR
STARTCHAR bracketright
ENCODING 93
SWIDTH 430 0
DWIDTH 8 0
BBX 7 17 0 -2
BITMAP
F8
0C
06
02
02
02
02
02
02
02
02
02
02
02
02
7E
7E
ENDCHAR
STARTCHAR asciicircum
ENCODING 94
SWIDTH 375 0
DWIDTH 7 0
BBX 5 4 1 9
BITMAP
20
70
D8
88
ENDCHAR
STARTCHAR underscore
ENCODING 95
SWIDTH 656 0
DWIDTH 12 0
BBX 12 2 0 0
BITMAP
F000
0FF0
ENDCHAR
STARTCHAR grave
ENCODING 96
SWIDTH 172 0
DWIDTH 3 0
BBX 3 2 0 8
BITMAP
C0
60
ENDCHAR
STARTCHAR a
ENCODING 97
SWIDTH 505 0
DWIDTH 9 0
BBX 9 9 0 0
BITMAP
1800
0600
0200
1900
6700
8100
8080
4180
3E00
ENDCHAR
STARTCHAR b
ENCODING 98
SWIDTH 497 0
DWIDTH 9 0
BBX 9 11 0 0
BITMAP
8000
8000
4000
4000
4000
7C00
4300
4100
4080
2100
3E00
ENDCHAR
STARTCHAR c
ENCODING 99
SWIDTH 449 0
DWIDTH 8 0
BBX 8 8 0 0
BITMAP
3C
44
44
80
80
40
60
3F
ENDCHAR
STARTCHAR d
ENCODING 100
SWIDTH 524 0
DWIDTH 9 0
BBX 9 13 0 0
BITMAP
0200
0200
0300
0100
0100
3900
6700
4380
C180
8180
4380
4C80
3800
ENDCHAR
STARTCHAR e
ENCODING 101
SWIDTH 515 0
DWIDTH 9 0
BBX 9 9 0 0
BITMAP
3C00
4200
4200
8400
B800
8000
4000
2000
1F80
ENDCHAR
STARTCHAR f
ENCODING 102
SWIDTH 376 0
DWIDTH 7 0
BBX 8 13 0 0
BITMAP
0C
12
21
20
20
20
20
FC
20
10
10
08
08
ENDCHAR
STARTCHAR g
ENCODING 103
SWIDTH 366 0
DWIDTH 7 0
BBX 9 16 -2 -9
BITMAP
0E00
1100
1100
2100
2100
1F00
0900
0100
0100
0080
0080
8080
8100
C100
3B00
0E00
ENDCHAR
STARTCHAR h
ENCODING 104
SWIDTH 427 0
DWIDTH 8 0
BBX 7 13 0 0
BITMAP
80
80
80
80
40
78
44
42
42
42
42
42
42
ENDCHAR
STARTCHAR i
ENCODING 105
SWIDTH 174 0
DWIDTH 3 0
BBX 3 11 0 0
BITMAP
80
00
00
40
40
40
40
40
60
20
20
ENDCHAR
STARTCHAR j
ENCODING 106
SWIDTH 200 0
DWIDTH 4 0
BBX 6 19 -2 -8
BITMAP
20
10
00
00
10
08
08
08
08
08
0C
04
04
84
84
44
44
34
1C
ENDCHAR
STARTCHAR k
ENCODING 107
SWIDTH 403 0
DWIDTH 7 0
BBX 7 11 0 0
BITMAP
80
80
80
8C
48
50
60
60
60
58
46
ENDCHAR
STARTCHAR l
ENCODING 108
SWIDTH 120 0
DWIDTH 2 0
BBX 2 10 0 0
BITMAP
80
40
C0
C0
C0
C0
C0
C0
40
40
ENDCHAR
STARTCHAR m
ENCODING 109
SWIDTH 750 0
DWIDTH 14 0
BBX 13 8 0 0
BITMAP
0040
B9F0
4710
4608
4208
4208
4208
4008
ENDCHAR
STARTCHAR n
ENCODING 110
SWIDTH 459 0
DWIDTH 8 0
BBX 7 8 1 0
BITMAP
38
CC
84
86
82
82
82
82
ENDCHAR
STARTCHAR o
ENCODING 111
SWIDTH 487 0
DWIDTH 9 0
BBX 8 7 0 0
BITMAP
1E
63
81
81
81
43
3C
ENDCHAR
STARTCHAR p
ENCODING 112
SWIDTH 520 0
DWIDTH 9 0
BBX 9 12 0 -6
BITMAP
3F00
4180
C080
C080
DF80
4400
4000
4000
6000
6000
2000
2000
ENDCHAR
STARTCHAR q
ENCODING 113
SWIDTH 412 0
DWIDTH 7 0
BBX 7 15 0 -6
BITMAP
1C
62
42
86
86
84
44
7C
14
04
04
04
06
06
02
ENDCHAR
STARTCHAR r
ENCODING 114
SWIDTH 346 0
DWIDTH 6 0
BBX 6 8 0 0
BITMAP
3C
C0
80
40
40
40
40
20
ENDCHAR
STARTCHAR s
ENCODING 115
SWIDTH 514 0
DWIDTH 9 0
BBX 9 8 0 0
BITMAP
7C00
4400
4400
3C00
0300
0080
C180
3F00
ENDCHAR
STARTCHAR t
ENCODING 116
SWIDTH 328 0
DWIDTH 6 0
BBX 6 11 0 0
BITMAP
20
20
20
20
FC
20
30
30
30
10
10
ENDCHAR
STARTCHAR u
ENCODING 117
SWIDTH 501 0
DWIDTH 9 0
BBX 9 9 0 0
BITMAP
8000
8200
8300
8300
4300
4300
6500
3880
0080
ENDCHAR
STARTCHAR v
ENCODING 118
SWIDTH 389 0
DWIDTH 7 0
BBX 7 7 0 0
BITMAP
80
46
44
64
28
18
10
ENDCHAR
STARTCHAR w
ENCODING 119
SWIDTH 656 0
DWIDTH 12 0
BBX 11 8 0 0
BITMAP
8000
C000
8460
8220
8620
4620
4F60
39C0
ENDCHAR
STARTCHAR x
ENCODING 120
SWIDTH 448 0
DWIDTH 8 0
BBX 8 8 0 -1
BITMAP
81
46
28
10
38
44
42
03
ENDCHAR
STARTCHAR y
ENCODING 121
SWIDTH 487 0
DWIDTH 9 0
BBX 8 17 0 -9
BITMAP
81
81
81
41
41
41
27
19
01
01
01
01
01
41
61
32
0C
ENDCHAR
STARTCHAR z
ENCODING 122
SWIDTH 459 0
DWIDTH 8 0
BBX 8 9 0 0
BITMAP
7C
84
04
04
7E
10
20
23
3E
ENDCHAR
STARTCHAR braceleft
ENCODING 123
SWIDTH 393 0
DWIDTH 7 0
BBX 7 18 0 -2
BITMAP
1C
62
40
80
80
40
60
38
1C
64
04
08
30
20
40
40
22
1C
ENDCHAR
STARTCHAR bar
ENCODING 124
SWIDTH 149 0
DWIDTH 3 0
BBX 2 12 0 0
BITMAP
80
80
80
40
40
40
40
40
40
40
40
40
ENDCHAR
STARTCHAR braceright
ENCODING 125
SWIDTH 440 0
DWIDTH 8 0
BBX 7 21 0 -4
BITMAP
F8
C4
06
04
0C
18
20
20
3C
20
20
10
08
04
02
02
02
02
02
82
7C
ENDCHAR
STARTCHAR asciitilde
ENCODING 126
SWIDTH 402 0
DWIDTH 7 0
BBX 7 3 0 7
BITMAP
62
9C
80
ENDCHAR
STARTCHAR nonbreakingspace
ENCODING 160
SWIDTH 375 0
DWIDTH 7 0
BBX 1 1 0 0
BITMAP
00
ENDCHAR
STARTCHAR exclamdown
ENCODING 161
SWIDTH 149 0
DWIDTH 3 0
BBX 2 12 0 0
BITMAP
C0
40
00
00
40
40
40
40
40
40
40
40
ENDCHAR
STARTCHAR cent
ENCODING 162
SWIDTH 449 0
DWIDTH 8 0
BBX 8 11 0 -1
BITMAP
10
10
3C
4C
4C
88
88
C8
68
3F
08
ENDCHAR
STARTCHAR sterling
ENCODING 163
SWIDTH 758 0
DWIDTH 14 0
BBX 13 13 0 0
BITMAP
0070
0088
0108
0100
0200
0FE0
3200
0200
0400
0400
0400
FF80
7040
ENDCHAR
STARTCHAR currency
ENCODING 164
SWIDTH 618 0
DWIDTH 11 0
BBX 9 10 1 0
BITMAP
8000
DE80
7300
4100
4080
4080
4100
6200
5D00
8100
ENDCHAR
STARTCHAR yen
ENCODING 165
SWIDTH 389 0
DWIDTH 7 0
BBX 7 13 0 0
BITMAP
42
42
24
2C
18
18
10
FC
10
7C
10
10
10
ENDCHAR
STARTCHAR brokenbar
ENCODING 166
SWIDTH 117 0
DWIDTH 2 0
BBX 2 10 0 0
BITMAP
40
40
80
80
00
80
C0
C0
40
40
ENDCHAR
STARTCHAR section
ENCODING 167
SWIDTH 514 0
DWIDTH 9 0
BBX 8 12 1 0
BITMAP
78
86
82
40
FE
81
81
FF
06
01
C3
7E
ENDCHAR
STARTCHAR dieresis
ENCODING 168
SWIDTH 397 0
DWIDTH 7 0
BBX 5 1 1 8
BITMAP
D8
ENDCHAR
STARTCHAR copyright
ENCODING 169
SWIDTH 667 0
DWIDTH 12 0
BBX 11 10 1 0
BITMAP
3E00
4380
8E80
9240
A240
A020
A020
9F60
60C0
3F00
ENDCHAR
STARTCHAR ordfeminine
ENCODING 170
SWIDTH 266 0
DWIDTH 5 0
BBX 4 5 0 4
BITMAP
60
10
70
90
70
ENDCHAR
STARTCHAR guillemotleft
ENCODING 171
SWIDTH 755 0
DWIDTH 14 0
BBX 13 9 0 0
BITMAP
0010
0038
0340
0580
1A00
2400
4FE0
FC30
0300
ENDCHAR
STARTCHAR logicalnot
ENCODING 172
SWIDTH 369 0
DWIDTH 7 0
BBX 5 2 1 5
BITMAP
F8
08
ENDCHAR
STARTCHAR hyphen_
ENCODING 173
SWIDTH 375 0
DWIDTH 7 0
BBX 6 2 0 4
BITMAP
7C
C0
ENDCHAR
STARTCHAR registered
ENCODING 174
SWIDTH 708 0
DWIDTH 13 0
BBX 11 10 1 0
BITMAP
3F00
4180
BEC0
D140
9320
9C20
9420
D240
6180
1E00
ENDCHAR
STARTCHAR macron
ENCODING 175
SWIDTH 287 0
DWIDTH 5 0
BBX 4 2 1 8
BITMAP
F0
80
ENDCHAR
STARTCHAR degree
ENCODING 176
SWIDTH 254 0
DWIDTH 5 0
BBX 4 5 0 5
BITMAP
20
D0
90
90
60
ENDCHAR
STARTCHAR plusminus
ENCODING 177
SWIDTH 459 0
DWIDTH 8 0
BBX 8 8 0 1
BITMAP
10
10
10
1E
FF
08
08
7F
ENDCHAR
STARTCHAR twosuperior
ENCODING 178
SWIDTH 296 0
DWIDTH 5 0
BBX 5 6 0 4
BITMAP
30
50
10
10
90
F8
ENDCHAR
STARTCHAR threesuperior
ENCODING 179
SWIDTH 204 0
DWIDTH 4 0
BBX 4 6 0 5
BITMAP
E0
20
C0
20
90
60
ENDCHAR
STARTCHAR acute
ENCODING 180
SWIDTH 180 0
DWIDTH 3 0
BBX 3 3 0 7
BITMAP
20
40
80
ENDCHAR
STARTCHAR mu
ENCODING 181
SWIDTH 501 0
DWIDTH 9 0
BBX 9 10 0 -1
BITMAP
8000
8200
8300
8300
C300
C300
E700
BD00
8080
8000
ENDCHAR
STARTCHAR paragraph
ENCODING 182
SWIDTH 413 0
DWIDTH 7 0
BBX 7 10 0 -1
BITMAP
7C
7E
FA
FA
0A
0A
0A
0A
0A
04
ENDCHAR
STARTCHAR periodcentered
ENCODING 183
SWIDTH 212 0
DWIDTH 4 0
BBX 2 2 1 3
BITMAP
C0
C0
ENDCHAR
STARTCHAR cedilla
ENCODING 184
SWIDTH 445 0
DWIDTH 8 0
BBX 4 6 3 -6
BITMAP
80
80
70
10
D0
60
ENDCHAR
STARTCHAR onesuperior
ENCODING 185
SWIDTH 197 0
DWIDTH 4 0
BBX 3 7 0 4
BITMAP
20
20
60
A0
A0
20
40
ENDCHAR
STARTCHAR ordmasculine
ENCODING 186
SWIDTH 254 0
DWIDTH 5 0
BBX 4 5 0 5
BITMAP
20
D0
90
90
60
ENDCHAR
STARTCHAR guillemotright
ENCODING 187
SWIDTH 659 0
DWIDTH 12 0
BBX 11 9 0 0
BITMAP
0400
CE00
39E0
0620
0640
0C80
1B00
6600
C800
ENDCHAR
STARTCHAR onequarter
ENCODING 188
SWIDTH 626 0
DWIDTH 11 0
BBX 10 14 0 0
BITMAP
0400
0400
1400
1400
2400
6800
A800
2A00
2A00
1440
1440
13C0
2040
2040
ENDCHAR
STARTCHAR onehalf
ENCODING 189
SWIDTH 566 0
DWIDTH 10 0
BBX 10 14 0 -1
BITMAP
1400
1400
1400
3400
7400
A800
2B80
2A80
2880
1080
1080
1F00
27C0
2000
ENDCHAR
STARTCHAR threequarters
ENCODING 190
SWIDTH 566 0
DWIDTH 10 0
BBX 10 14 0 -1
BITMAP
0400
0400
E400
2400
4400
3800
9A00
7C00
0C40
0CC0
1380
1040
1040
2000
ENDCHAR
STARTCHAR questiondown
ENCODING 191
SWIDTH 272 0
DWIDTH 5 0
BBX 5 13 0 0
BITMAP
40
00
00
00
00
70
10
20
60
40
C0
40
78
ENDCHAR
STARTCHAR Agrave
ENCODING 192
SWIDTH 562 0
DWIDTH 10 0
BBX 10 17 0 0
BITMAP
0800
0400
0000
0C00
3200
4100
4100
4080
4080
4080
4080
FF80
4040
4040
4040
40C0
4080
ENDCHAR
STARTCHAR Aacute
ENCODING 193
SWIDTH 562 0
DWIDTH 10 0
BBX 10 17 0 0
BITMAP
0800
1800
2000
0C00
3200
4100
4100
4080
4080
4080
4080
FF80
4040
4040
4040
40C0
4080
ENDCHAR
STARTCHAR Acircumflex
ENCODING 194
SWIDTH 562 0
DWIDTH 10 0
BBX 10 17 0 0
BITMAP
0800
0C00
3600
2E00
3200
4100
4100
4080
4080
4080
4080
FF80
4040
4040
4040
40C0
4080
ENDCHAR
STARTCHAR Atilde
ENCODING 195
SWIDTH 562 0
DWIDTH 10 0
BBX 10 17 0 0
BITMAP
3100
4E00
4000
0C00
3200
4100
4100
4080
4080
4080
4080
FF80
4040
4040
4040
40C0
4080
ENDCHAR
STARTCHAR Adieresis
ENCODING 196
SWIDTH 562 0
DWIDTH 10 0
BBX 10 16 0 0
BITMAP
3600
0000
0C00
3200
4100
4100
4080
4080
4080
4080
FF80
4040
4040
4040
40C0
4080
ENDCHAR
STARTCHAR Aring
ENCODING 197
SWIDTH 562 0
DWIDTH 10 0
BBX 10 16 0 0
BITMAP
1C00
1400
0C00
3200
4100
4100
4080
4080
4080
4080
FF80
4040
4040
4040
40C0
4080
ENDCHAR
STARTCHAR AE
ENCODING 198
SWIDTH 960 0
DWIDTH 17 0
BBX 17 14 0 0
BITMAP
0C0000
320000
410000
417F00
40C080
40C000
40C000
40FF00
FFC000
404000
404000
404000
40C100
40FF80
ENDCHAR
STARTCHAR Ccedilla
ENCODING 199
SWIDTH 515 0
DWIDTH 9 0
BBX 9 18 0 -6
BITMAP
0600
1E00
3200
2000
4000
8000
8000
8000
8000
4000
6380
3C00
2000
1000
0E00
0200
3200
0C00
ENDCHAR
STARTCHAR Egrave
ENCODING 200
SWIDTH 524 0
DWIDTH 9 0
BBX 9 14 0 0
BITMAP
1800
0C00
0000
7F00
4000
4000
4000
5F00
E000
8000
8000
8000
8100
7F80
ENDCHAR
STARTCHAR Eacute
ENCODING 201
SWIDTH 524 0
DWIDTH 9 0
BBX 9 14 0 0
BITMAP
0400
1800
1000
7F00
4000
4000
4000
5F00
E000
8000
8000
8000
8100
7F80
ENDCHAR
STARTCHAR Ecircumflex
ENCODING 202
SWIDTH 524 0
DWIDTH 9 0
BBX 9 16 0 0
BITMAP
0C00
0C00
1200
2200
0000
7F00
4000
4000
4000
5F00
E000
8000
8000
8000
8100
7F80
ENDCHAR
STARTCHAR Edieresis
ENCODING 203
SWIDTH 524 0
DWIDTH 9 0
BBX 9 13 0 0
BITMAP
3600
0000
7F00
4000
4000
4000
5F00
E000
8000
8000
8000
8100
7F80
ENDCHAR
STARTCHAR Igrave
ENCODING 204
SWIDTH 167 0
DWIDTH 3 0
BBX 3 14 0 0
BITMAP
80
40
00
00
80
80
40
40
40
40
40
60
20
20
ENDCHAR
STARTCHAR Iacute
ENCODING 205
SWIDTH 167 0
DWIDTH 3 0
BBX 3 13 0 0
BITMAP
40
C0
80
80
80
40
40
40
40
40
60
20
20
ENDCHAR
STARTCHAR Icircumflex
ENCODING 206
SWIDTH 167 0
DWIDTH 3 0
BBX 5 16 -1 0
BITMAP
20
30
58
88
00
00
40
40
20
20
20
20
20
30
10
10
ENDCHAR
STARTCHAR Idieresis
ENCODING 207
SWIDTH 167 0
DWIDTH 3 0
BBX 5 12 -2 0
BITMAP
D8
00
20
20
10
10
10
10
10
18
08
08
ENDCHAR
STARTCHAR Eth
ENCODING 208
SWIDTH 741 0
DWIDTH 13 0
BBX 13 11 0 0
BITMAP
FF00
04C0
0420
0210
0390
0E48
0208
0208
0210
0830
07C0
ENDCHAR
STARTCHAR Ntilde
ENCODING 209
SWIDTH 609 0
DWIDTH 11 0
BBX 10 13 1 0
BITMAP
3100
4E00
4000
8000
8100
8100
8180
C080
C080
A0C0
B080
9980
8700
ENDCHAR
STARTCHAR Ograve
ENCODING 210
SWIDTH 609 0
DWIDTH 11 0
BBX 10 13 0 0
BITMAP
0400
0200
0000
0000
1800
6600
4180
80C0
8040
8040
4040
20C0
1F00
ENDCHAR
STARTCHAR Oacute
ENCODING 211
SWIDTH 609 0
DWIDTH 11 0
BBX 10 13 0 0
BITMAP
0200
0C00
0800
0000
1800
6600
4180
80C0
8040
8040
4040
20C0
1F00
ENDCHAR
STARTCHAR Ocircumflex
ENCODING 212
SWIDTH 609 0
DWIDTH 11 0
BBX 10 14 0 0
BITMAP
1800
1C00
2400
4400
0000
1800
6600
4180
80C0
8040
8040
4040
20C0
1F00
ENDCHAR
STARTCHAR Otilde
ENCODING 213
SWIDTH 609 0
DWIDTH 11 0
BBX 10 12 0 0
BITMAP
3100
4E00
4000
1800
6600
4180
80C0
8040
8040
4040
20C0
1F00
ENDCHAR
STARTCHAR Odieresis
ENCODING 214
SWIDTH 609 0
DWIDTH 11 0
BBX 10 12 0 0
BITMAP
1B00
0000
0000
1800
6600
4180
80C0
8040
8040
4040
20C0
1F00
ENDCHAR
STARTCHAR multiply
ENCODING 215
SWIDTH 448 0
DWIDTH 8 0
BBX 5 5 1 1
BITMAP
88
50
20
50
98
ENDCHAR
STARTCHAR Oslash
ENCODING 216
SWIDTH 609 0
DWIDTH 11 0
BBX 10 14 0 -2
BITMAP
0200
0200
0200
1A00
6600
4580
84C0
8C40
8840
4840
30C0
1F00
3000
2000
ENDCHAR
STARTCHAR Ugrave
ENCODING 217
SWIDTH 571 0
DWIDTH 10 0
BBX 10 13 0 0
BITMAP
0C00
0600
0000
4100
8100
8100
8100
8080
4080
4080
41C0
2240
1C00
ENDCHAR
STARTCHAR Uacute
ENCODING 218
SWIDTH 571 0
DWIDTH 10 0
BBX 10 13 0 0
BITMAP
0400
0800
1000
4100
8100
8100
8100
8080
4080
4080
41C0
2240
1C00
ENDCHAR
STARTCHAR Ucircumflex
ENCODING 219
SWIDTH 571 0
DWIDTH 10 0
BBX 10 16 0 0
BITMAP
0400
0E00
1B00
2200
0000
0000
4100
8100
8100
8100
8080
4080
4080
41C0
2240
1C00
ENDCHAR
STARTCHAR Udieresis
ENCODING 220
SWIDTH 571 0
DWIDTH 10 0
BBX 10 12 0 0
BITMAP
1A00
0000
4100
8100
8100
8100
8080
4080
4080
41C0
2240
1C00
ENDCHAR
STARTCHAR Yacute
ENCODING 221
SWIDTH 403 0
DWIDTH 7 0
BBX 7 15 0 0
BITMAP
04
08
10
80
82
42
66
3C
0C
0C
08
08
08
10
08
ENDCHAR
STARTCHAR Thorn
ENCODING 222
SWIDTH 497 0
DWIDTH 9 0
BBX 8 14 1 -3
BITMAP
80
80
80
80
80
F8
86
82
81
C2
BC
80
80
80
ENDCHAR
STARTCHAR germandbls
ENCODING 223
SWIDTH 590 0
DWIDTH 11 0
BBX 9 15 1 -2
BITMAP
8000
F800
8C00
8400
8800
B800
9C00
8300
8180
8080
8080
8380
9C00
C000
C000
ENDCHAR
STARTCHAR agrave
ENCODING 224
SWIDTH 505 0
DWIDTH 9 0
BBX 9 12 0 0
BITMAP
1000
0800
0000
1800
0600
0200
1900
6700
8100
8080
4180
3E00
ENDCHAR
STARTCHAR aacute
ENCODING 225
SWIDTH 505 0
DWIDTH 9 0
BBX 9 13 0 0
BITMAP
0400
1800
1000
0000
1800
0600
0200
1900
6700
8100
8080
4180
3E00
ENDCHAR
STARTCHAR acircumflex
ENCODING 226
SWIDTH 505 0
DWIDTH 9 0
BBX 9 13 0 0
BITMAP
0800
0C00
1600
2200
1800
0600
0200
1900
6700
8100
8080
4180
3E00
ENDCHAR
STARTCHAR atilde
ENCODING 227
SWIDTH 505 0
DWIDTH 9 0
BBX 9 13 0 0
BITMAP
3100
4E00
4000
0000
1800
0600
0200
1900
6700
8100
8080
4180
3E00
ENDCHAR
STARTCHAR adieresis
ENCODING 228
SWIDTH 505 0
DWIDTH 9 0
BBX 9 11 0 0
BITMAP
3600
0000
1800
0600
0200
1900
6700
8100
8080
4180
3E00
ENDCHAR
STARTCHAR aring
ENCODING 229
SWIDTH 505 0
DWIDTH 9 0
BBX 9 12 0 0
BITMAP
0800
3400
1400
1800
0600
0200
1900
6700
8100
8080
4180
3E00
ENDCHAR
STARTCHAR ae
ENCODING 230
SWIDTH 881 0
DWIDTH 16 0
BBX 16 9 0 0
BITMAP
1830
06C8
0284
1908
6718
8160
8080
4180
3E7F
ENDCHAR
STARTCHAR ccedilla
ENCODING 231
SWIDTH 449 0
DWIDTH 8 0
BBX 8 13 0 -5
BITMAP
3C
44
44
80
80
40
60
3F
20
10
0E
02
3E
ENDCHAR
STARTCHAR egrave
ENCODING 232
SWIDTH 515 0
DWIDTH 9 0
BBX 9 12 0 0
BITMAP
1000
0800
0000
3C00
4200
4200
8400
B800
8000
4000
2000
1F80
ENDCHAR
STARTCHAR eacute
ENCODING 233
SWIDTH 515 0
DWIDTH 9 0
BBX 9 13 0 0
BITMAP
0800
1800
2000
0000
3C00
4200
4200
8400
B800
8000
4000
2000
1F80
ENDCHAR
STARTCHAR ecircumflex
ENCODING 234
SWIDTH 515 0
DWIDTH 9 0
BBX 9 13 0 0
BITMAP
0800
0C00
1600
2200
3C00
4200
4200
8400
B800
8000
4000
2000
1F80
ENDCHAR
STARTCHAR edieresis
ENCODING 235
SWIDTH 515 0
DWIDTH 9 0
BBX 9 11 0 0
BITMAP
3600
0000
3C00
4200
4200
8400
B800
8000
4000
2000
1F80
ENDCHAR
STARTCHAR igrave
ENCODING 236
SWIDTH 174 0
DWIDTH 3 0
BBX 3 11 0 0
BITMAP
80
40
20
40
40
40
40
40
60
20
20
ENDCHAR
STARTCHAR iacute
ENCODING 237
SWIDTH 174 0
DWIDTH 3 0
BBX 3 11 0 0
BITMAP
60
80
80
40
40
40
40
40
60
20
20
ENDCHAR
STARTCHAR icircumflex
ENCODING 238
SWIDTH 174 0
DWIDTH 3 0
BBX 5 13 -1 0
BITMAP
20
30
58
88
00
20
20
20
20
20
30
10
10
ENDCHAR
STARTCHAR idieresis
ENCODING 239
SWIDTH 174 0
DWIDTH 3 0
BBX 5 11 -1 0
BITMAP
90
D8
00
20
20
20
20
20
30
10
10
ENDCHAR
STARTCHAR eth
ENCODING 240
SWIDTH 407 0
DWIDTH 7 0
BBX 7 10 0 0
BITMAP
40
F2
0E
34
02
7E
42
82
42
7C
ENDCHAR
STARTCHAR ntilde
ENCODING 241
SWIDTH 459 0
DWIDTH 8 0
BBX 8 12 0 0
BITMAP
62
9C
80
00
1C
66
42
43
41
41
41
41
ENDCHAR
STARTCHAR ograve
ENCODING 242
SWIDTH 487 0
DWIDTH 9 0
BBX 8 10 0 0
BITMAP
18
0C
00
1E
63
81
81
81
43
3C
ENDCHAR
STARTCHAR oacute
ENCODING 243
SWIDTH 487 0
DWIDTH 9 0
BBX 8 11 0 0
BITMAP
04
18
10
00
1E
63
81
81
81
43
3C
ENDCHAR
STARTCHAR ocircumflex
ENCODING 244
SWIDTH 487 0
DWIDTH 9 0
BBX 8 12 0 0
BITMAP
08
1C
36
42
00
1E
63
81
81
81
43
3C
ENDCHAR
STARTCHAR otilde
ENCODING 245
SWIDTH 487 0
DWIDTH 9 0
BBX 8 10 0 0
BITMAP
31
4E
40
1E
63
81
81
81
43
3C
ENDCHAR
STARTCHAR odieresis
ENCODING 246
SWIDTH 487 0
DWIDTH 9 0
BBX 8 9 0 0
BITMAP
36
00
1E
63
81
81
81
43
3C
ENDCHAR
STARTCHAR divide
ENCODING 247
SWIDTH 335 0
DWIDTH 6 0
BBX 4 5 1 1
BITMAP
20
00
F0
00
40
ENDCHAR
STARTCHAR oslash
ENCODING 248
SWIDTH 487 0
DWIDTH 9 0
BBX 8 8 0 0
BITMAP
02
3E
47
89
99
91
66
7C
ENDCHAR
STARTCHAR ugrave
ENCODING 249
SWIDTH 501 0
DWIDTH 9 0
BBX 9 12 0 0
BITMAP
3000
1800
0000
8000
8200
8300
8300
4300
4300
6500
3880
0080
ENDCHAR
STARTCHAR uacute
ENCODING 250
SWIDTH 501 0
DWIDTH 9 0
BBX 9 12 0 0
BITMAP
0400
1800
1000
8000
8200
8300
8300
4300
4300
6500
3880
0080
ENDCHAR
STARTCHAR ucircumflex
ENCODING 251
SWIDTH 501 0
DWIDTH 9 0
BBX 9 13 0 0
BITMAP
0800
0C00
1600
2200
8000
8200
8300
8300
4300
4300
6500
3880
0080
ENDCHAR
STARTCHAR udieresis
ENCODING 252
SWIDTH 501 0
DWIDTH 9 0
BBX 9 11 0 0
BITMAP
3400
0000
8000
8200
8300
8300
4300
4300
6500
3880
0080
ENDCHAR
STARTCHAR yacute
ENCODING 253
SWIDTH 487 0
DWIDTH 9 0
BBX 8 21 0 -9
BITMAP
08
18
10
00
81
81
81
41
41
41
27
19
01
01
01
01
01
41
61
32
0C
ENDCHAR
STARTCHAR thorn
ENCODING 254
SWIDTH 520 0
DWIDTH 9 0
BBX 9 12 0 -3
BITMAP
4000
4000
5E00
7300
4080
4080
4180
7F00
C000
C000
4000
4000
ENDCHAR
STARTCHAR ydieresis
ENCODING 255
SWIDTH 487 0
DWIDTH 9 0
BBX 8 19 0 -9
BITMAP
34
00
81
81
81
41
41
41
27
19
01
01
01
01
01
41
61
32
0C
ENDCHAR
STARTCHAR Amacron
ENCODING 256
SWIDTH 562 0
DWIDTH 10 0
BBX 10 16 0 0
BITMAP
1C00
3200
0C00
3200
4100
4100
4080
4080
4080
4080
FF80
4040
4040
4040
40C0
4080
ENDCHAR
STARTCHAR amacron
ENCODING 257
SWIDTH 505 0
DWIDTH 9 0
BBX 9 12 0 0
BITMAP
1C00
2200
0000
1800
0600
0200
1900
6700
8100
8080
4180
3E00
ENDCHAR
STARTCHAR Abreve
ENCODING 258
SWIDTH 562 0
DWIDTH 10 0
BBX 10 17 0 0
BITMAP
1200
0C00
0000
0C00
3200
4100
4100
4080
4080
4080
4080
FF80
4040
4040
4040
40C0
4080
ENDCHAR
STARTCHAR abreve
ENCODING 259
SWIDTH 505 0
DWIDTH 9 0
BBX 9 12 0 0
BITMAP
2400
1800
0000
1800
0600
0200
1900
6700
8100
8080
4180
3E00
ENDCHAR
STARTCHAR Aogonek
ENCODING 260
SWIDTH 562 0
DWIDTH 10 0
BBX 10 17 0 -3
BITMAP
0C00
3200
4100
4100
4080
4080
4080
4080
FF80
4040
4040
4040
40C0
4080
0100
0100
00C0
ENDCHAR
STARTCHAR aogonek
ENCODING 261
SWIDTH 505 0
DWIDTH 9 0
BBX 9 11 0 -2
BITMAP
1800
0600
0200
1900
6700
8100
8080
4180
3E00
0400
0780
ENDCHAR
STARTCHAR Cacute
ENCODING 262
SWIDTH 515 0
DWIDTH 9 0
BBX 9 15 0 0
BITMAP
0200
0C00
0800
0600
1E00
3200
2000
4000
8000
8000
8000
8000
4000
6380
3C00
ENDCHAR
STARTCHAR cacute
ENCODING 263
SWIDTH 449 0
DWIDTH 8 0
BBX 8 12 0 0
BITMAP
04
08
10
00
3C
44
44
80
80
40
60
3F
ENDCHAR
STARTCHAR Ccircumflex
ENCODING 264
SWIDTH 515 0
DWIDTH 9 0
BBX 9 16 0 0
BITMAP
0800
0C00
1600
2200
0600
1E00
3200
2000
4000
8000
8000
8000
8000
4000
6380
3C00
ENDCHAR
STARTCHAR ccircumflex
ENCODING 265
SWIDTH 449 0
DWIDTH 8 0
BBX 8 13 0 0
BITMAP
08
1C
34
44
00
3C
44
44
80
80
40
60
3F
ENDCHAR
STARTCHAR Cdotaccent
ENCODING 266
SWIDTH 515 0
DWIDTH 9 0
BBX 9 14 0 0
BITMAP
0800
0800
0600
1E00
3200
2000
4000
8000
8000
8000
8000
4000
6380
3C00
ENDCHAR
STARTCHAR cdotaccent
ENCODING 267
SWIDTH 449 0
DWIDTH 8 0
BBX 8 10 0 0
BITMAP
10
18
3C
44
44
80
80
40
60
3F
ENDCHAR
STARTCHAR Ccaron
ENCODING 268
SWIDTH 515 0
DWIDTH 9 0
BBX 9 15 0 0
BITMAP
1B00
0600
0000
0600
1E00
3200
2000
4000
8000
8000
8000
8000
4000
6380
3C00
ENDCHAR
STARTCHAR ccaron
ENCODING 269
SWIDTH 449 0
DWIDTH 8 0
BBX 8 11 0 0
BITMAP
24
18
00
3C
44
44
80
80
40
60
3F
ENDCHAR
STARTCHAR Dcaron
ENCODING 270
SWIDTH 741 0
DWIDTH 13 0
BBX 13 14 0 0
BITMAP
0C80
0300
0000
FF00
04C0
0420
0210
0210
0208
0208
0208
0210
0830
07C0
ENDCHAR
STARTCHAR dcaron
ENCODING 271
SWIDTH 582 0
DWIDTH 10 0
BBX 10 13 0 0
BITMAP
0240
0240
0340
0140
0100
3900
6700
4380
C180
8180
4380
4C80
3800
ENDCHAR
STARTCHAR Dcroat
ENCODING 272
SWIDTH 741 0
DWIDTH 13 0
BBX 13 11 0 0
BITMAP
FF00
04C0
0420
0210
0210
0F08
0208
0208
0210
0830
07C0
ENDCHAR
STARTCHAR dcroat
ENCODING 273
SWIDTH 524 0
DWIDTH 9 0
BBX 10 13 0 0
BITMAP
0200
0200
0780
0DC0
0100
3900
6700
4380
8180
8180
4380
4C80
3800
ENDCHAR
STARTCHAR Emacron
ENCODING 274
SWIDTH 524 0
DWIDTH 9 0
BBX 9 14 0 0
BITMAP
1E00
3000
0000
7F00
4000
4000
4000
5F00
E000
8000
8000
8000
8100
7F80
ENDCHAR
STARTCHAR emacron
ENCODING 275
SWIDTH 515 0
DWIDTH 9 0
BBX 9 12 0 0
BITMAP
1E00
3000
0000
3C00
4200
4200
8400
B800
8000
4000
2000
1F80
ENDCHAR
STARTCHAR Ebreve
ENCODING 276
SWIDTH 524 0
DWIDTH 9 0
BBX 9 14 0 0
BITMAP
2400
1800
0000
7F00
4000
4000
4000
5F00
E000
8000
8000
8000
8100
7F80
ENDCHAR
STARTCHAR ebreve
ENCODING 277
SWIDTH 515 0
DWIDTH 9 0
BBX 9 12 0 0
BITMAP
1200
0C00
0000
3C00
4200
4200
8400
B800
8000
4000
2000
1F80
ENDCHAR
STARTCHAR Edotaccent
ENCODING 278
SWIDTH 524 0
DWIDTH 9 0
BBX 9 14 0 0
BITMAP
0800
0800
0000
7F00
4000
4000
4000
5F00
E000
8000
8000
8000
8100
7F80
ENDCHAR
STARTCHAR edotaccent
ENCODING 279
SWIDTH 515 0
DWIDTH 9 0
BBX 9 12 0 0
BITMAP
1000
1800
0000
3C00
4200
4200
8400
B800
8000
4000
2000
1F80
ENDCHAR
STARTCHAR Eogonek
ENCODING 280
SWIDTH 524 0
DWIDTH 9 0
BBX 9 14 0 -3
BITMAP
7F00
4000
4000
4000
5F00
E000
8000
8000
8000
8100
7F80
0400
0400
0300
ENDCHAR
STARTCHAR eogonek
ENCODING 281
SWIDTH 515 0
DWIDTH 9 0
BBX 9 12 0 -3
BITMAP
3C00
4200
4200
8400
B800
8000
4000
2000
1F80
0400
0C00
0300
ENDCHAR
STARTCHAR Ecaron
ENCODING 282
SWIDTH 524 0
DWIDTH 9 0
BBX 9 14 0 0
BITMAP
3200
0C00
0000
7F00
4000
4000
4000
5F00
E000
8000
8000
8000
8100
7F80
ENDCHAR
STARTCHAR ecaron
ENCODING 283
SWIDTH 515 0
DWIDTH 9 0
BBX 9 12 0 0
BITMAP
3200
0C00
0000
3C00
4200
4200
8400
B800
8000
4000
2000
1F80
ENDCHAR
STARTCHAR Gcircumflex
ENCODING 284
SWIDTH 571 0
DWIDTH 10 0
BBX 9 15 1 -1
BITMAP
0400
0600
0B00
1100
0000
0F00
3000
4000
8000
9F00
8100
8100
C300
7D00
0080
ENDCHAR
STARTCHAR gcircumflex
ENCODING 285
SWIDTH 366 0
DWIDTH 7 0
BBX 9 22 -2 -9
BITMAP
0400
0E00
1B00
2100
0000
0000
0E00
1100
1100
2100
2100
1F00
0900
0100
0100
0080
0080
8080
8100
C100
3B00
0E00
ENDCHAR
STARTCHAR Gbreve
ENCODING 286
SWIDTH 571 0
DWIDTH 10 0
BBX 9 13 1 -1
BITMAP
2400
1800
0000
0F00
3000
4000
8000
9F00
8100
8100
C300
7D00
0080
ENDCHAR
STARTCHAR gbreve
ENCODING 287
SWIDTH 366 0
DWIDTH 7 0
BBX 9 19 -2 -9
BITMAP
1200
0C00
0000
0E00
1100
1100
2100
2100
1F00
0900
0100
0100
0080
0080
8080
8100
C100
3B00
0E00
ENDCHAR
STARTCHAR Gdotaccent
ENCODING 288
SWIDTH 571 0
DWIDTH 10 0
BBX 9 13 1 -1
BITMAP
0400
0400
0000
0F00
3000
4000
8000
9F00
8100
8100
C300
7D00
0080
ENDCHAR
STARTCHAR gdotaccent
ENCODING 289
SWIDTH 366 0
DWIDTH 7 0
BBX 9 19 -2 -9
BITMAP
0400
0400
0000
0E00
1100
1100
2100
2100
1F00
0900
0100
0100
0080
0080
8080
8100
C100
3B00
0E00
ENDCHAR
STARTCHAR Gcommaaccent
ENCODING 290
SWIDTH 571 0
DWIDTH 10 0
BBX 9 15 1 -6
BITMAP
0F00
3000
4000
8000
9F00
8100
8100
C300
7D00
0080
0000
1800
0800
1800
1000
ENDCHAR
STARTCHAR gcommaaccent
ENCODING 291
SWIDTH 366 0
DWIDTH 7 0
BBX 9 25 -2 -9
BITMAP
0400
0400
0400
0400
0000
0000
0000
0000
0000
0E00
1100
1100
2100
2100
1F00
0900
0100
0100
0080
0080
8080
8100
C100
3B00
0E00
ENDCHAR
STARTCHAR Hcircumflex
ENCODING 292
SWIDTH 524 0
DWIDTH 9 0
BBX 9 17 0 0
BITMAP
0C00
0C00
1600
2200
0000
8100
8100
4100
4100
4100
4700
5900
6100
C080
4080
4080
4080
ENDCHAR
STARTCHAR hcircumflex
ENCODING 293
SWIDTH 427 0
DWIDTH 8 0
BBX 7 14 0 0
BITMAP
08
9C
B4
C6
80
40
78
44
42
42
42
42
42
42
ENDCHAR
STARTCHAR hbar
ENCODING 295
SWIDTH 427 0
DWIDTH 8 0
BBX 8 13 -1 0
BITMAP
40
40
40
F0
20
3C
22
21
21
21
21
21
21
ENDCHAR
STARTCHAR Itilde
ENCODING 296
SWIDTH 167 0
DWIDTH 3 0
BBX 7 13 -2 0
BITMAP
62
9C
80
20
20
10
10
10
10
10
18
08
08
ENDCHAR
STARTCHAR itilde
ENCODING 297
SWIDTH 174 0
DWIDTH 3 0
BBX 6 12 -1 0
BITMAP
64
98
80
00
20
20
20
20
20
30
10
10
ENDCHAR
STARTCHAR imacron
ENCODING 299
SWIDTH 174 0
DWIDTH 3 0
BBX 5 11 -1 0
BITMAP
78
80
00
20
20
20
20
20
30
10
10
ENDCHAR
STARTCHAR Ibreve
ENCODING 300
SWIDTH 167 0
DWIDTH 3 0
BBX 3 14 0 0
BITMAP
A0
60
00
00
80
80
40
40
40
40
40
60
20
20
ENDCHAR
STARTCHAR ibreve
ENCODING 301
SWIDTH 174 0
DWIDTH 3 0
BBX 3 11 0 0
BITMAP
A0
C0
00
40
40
40
40
40
60
20
20
ENDCHAR
STARTCHAR Iogonek
ENCODING 302
SWIDTH 167 0
DWIDTH 3 0
BBX 4 13 0 -3
BITMAP
80
80
40
40
40
40
40
60
20
60
80
80
70
ENDCHAR
STARTCHAR iogonek
ENCODING 303
SWIDTH 174 0
DWIDTH 3 0
BBX 3 14 0 -3
BITMAP
80
00
00
40
40
40
40
40
60
20
60
80
80
60
ENDCHAR
STARTCHAR Idotaccent
ENCODING 304
SWIDTH 167 0
DWIDTH 3 0
BBX 3 13 0 0
BITMAP
80
80
00
80
80
40
40
40
40
40
60
20
20
ENDCHAR
STARTCHAR dotlessi
ENCODING 305
SWIDTH 174 0
DWIDTH 3 0
BBX 2 8 1 0
BITMAP
80
80
80
80
80
C0
40
40
ENDCHAR
STARTCHAR Jcircumflex
ENCODING 308
SWIDTH 439 0
DWIDTH 8 0
BBX 8 17 0 0
BITMAP
06
07
09
11
04
02
02
02
02
02
02
81
41
41
22
12
0E
ENDCHAR
STARTCHAR jcircumflex
ENCODING 309
SWIDTH 200 0
DWIDTH 4 0
BBX 6 21 -2 -8
BITMAP
18
18
24
44
00
00
10
08
08
08
08
08
0C
04
04
84
84
44
44
34
1C
ENDCHAR
STARTCHAR Kcommaaccent
ENCODING 310
SWIDTH 468 0
DWIDTH 8 0
BBX 8 17 0 -6
BITMAP
84
8C
98
B0
60
40
60
70
48
46
43
00
00
18
08
08
10
ENDCHAR
STARTCHAR kcommaaccent
ENCODING 311
SWIDTH 403 0
DWIDTH 7 0
BBX 7 17 0 -6
BITMAP
80
80
80
8C
48
50
60
60
60
58
46
00
00
10
10
10
10
ENDCHAR
STARTCHAR Lacute
ENCODING 313
SWIDTH 346 0
DWIDTH 6 0
BBX 6 13 0 0
BITMAP
08
18
20
40
40
40
40
C0
80
80
80
40
7C
ENDCHAR
STARTCHAR lacute
ENCODING 314
SWIDTH 120 0
DWIDTH 2 0
BBX 2 14 0 0
BITMAP
40
C0
80
00
80
40
C0
C0
C0
C0
C0
C0
40
40
ENDCHAR
STARTCHAR Lcommaaccent
ENCODING 315
SWIDTH 346 0
DWIDTH 6 0
BBX 6 16 0 -6
BITMAP
40
40
40
40
C0
80
80
80
40
7C
00
00
30
10
30
20
ENDCHAR
STARTCHAR lcommaaccent
ENCODING 316
SWIDTH 120 0
DWIDTH 2 0
BBX 2 16 0 -6
BITMAP
80
40
C0
C0
C0
C0
C0
C0
40
40
00
00
C0
40
C0
80
ENDCHAR
STARTCHAR Lcaron
ENCODING 317
SWIDTH 346 0
DWIDTH 6 0
BBX 6 13 0 0
BITMAP
10
10
10
50
40
40
40
C0
80
80
80
40
7C
ENDCHAR
STARTCHAR lcaron
ENCODING 318
SWIDTH 222 0
DWIDTH 4 0
BBX 4 13 0 0
BITMAP
20
10
10
90
40
C0
C0
C0
C0
C0
C0
40
40
ENDCHAR
STARTCHAR Ldot
ENCODING 319
SWIDTH 346 0
DWIDTH 6 0
BBX 6 10 0 0
BITMAP
40
40
40
40
C0
B0
B0
80
40
7C
ENDCHAR
STARTCHAR ldot
ENCODING 320
SWIDTH 333 0
DWIDTH 6 0
BBX 5 10 0 0
BITMAP
80
40
C0
C0
C0
D8
D8
C0
40
40
ENDCHAR
STARTCHAR Lslash
ENCODING 321
SWIDTH 346 0
DWIDTH 6 0
BBX 7 10 0 0
BITMAP
20
20
60
40
40
70
C0
40
60
3E
ENDCHAR
STARTCHAR lslash
ENCODING 322
SWIDTH 120 0
DWIDTH 2 0
BBX 4 11 -1 0
BITMAP
40
20
20
20
30
60
A0
20
20
20
20
ENDCHAR
STARTCHAR Nacute
ENCODING 323
SWIDTH 609 0
DWIDTH 11 0
BBX 10 13 1 0
BITMAP
0400
1800
1000
8000
8100
8100
8180
C080
C080
A0C0
B080
9980
8700
ENDCHAR
STARTCHAR nacute
ENCODING 324
SWIDTH 459 0
DWIDTH 8 0
BBX 7 12 1 0
BITMAP
10
20
40
00
38
CC
84
86
82
82
82
82
ENDCHAR
STARTCHAR Ncommaaccent
ENCODING 325
SWIDTH 609 0
DWIDTH 11 0
BBX 10 16 1 -6
BITMAP
8000
8100
8100
8180
C080
C080
A0C0
B080
9980
8700
0000
0000
0800
0800
0800
0800
ENDCHAR
STARTCHAR ncommaaccent
ENCODING 326
SWIDTH 459 0
DWIDTH 8 0
BBX 7 14 1 -6
BITMAP
38
CC
84
86
82
82
82
82
00
00
30
10
30
20
ENDCHAR
STARTCHAR Ncaron
ENCODING 327
SWIDTH 609 0
DWIDTH 11 0
BBX 10 14 1 0
BITMAP
3200
0C00
0000
0000
8000
8100
8100
8180
C080
C080
A0C0
B080
9980
8700
ENDCHAR
STARTCHAR ncaron
ENCODING 328
SWIDTH 459 0
DWIDTH 8 0
BBX 7 11 1 0
BITMAP
4C
30
00
38
CC
84
86
82
82
82
82
ENDCHAR
STARTCHAR napostrophe
ENCODING 329
SWIDTH 459 0
DWIDTH 8 0
BBX 7 12 1 0
BITMAP
40
40
40
80
38
CC
84
86
82
82
82
82
ENDCHAR
STARTCHAR Omacron
ENCODING 332
SWIDTH 609 0
DWIDTH 11 0
BBX 10 13 0 0
BITMAP
0E00
1900
0000
0000
1800
6600
4180
80C0
8040
8040
4040
20C0
1F00
ENDCHAR
STARTCHAR omacron
ENCODING 333
SWIDTH 487 0
DWIDTH 9 0
BBX 8 10 0 0
BITMAP
1C
22
00
1E
63
81
81
81
43
3C
ENDCHAR
STARTCHAR Obreve
ENCODING 334
SWIDTH 609 0
DWIDTH 11 0
BBX 10 12 0 0
BITMAP
1200
0C00
0000
1800
6600
4180
80C0
8040
8040
4040
20C0
1F00
ENDCHAR
STARTCHAR obreve
ENCODING 335
SWIDTH 487 0
DWIDTH 9 0
BBX 8 11 0 0
BITMAP
28
18
00
00
1E
63
81
81
81
43
3C
ENDCHAR
STARTCHAR Ohungarumlaut
ENCODING 336
SWIDTH 609 0
DWIDTH 11 0
BBX 10 13 0 0
BITMAP
0A00
1600
0000
0000
1800
6600
4180
80C0
8040
8040
4040
20C0
1F00
ENDCHAR
STARTCHAR ohungarumlaut
ENCODING 337
SWIDTH 487 0
DWIDTH 9 0
BBX 8 10 0 0
BITMAP
14
28
00
1E
63
81
81
81
43
3C
ENDCHAR
STARTCHAR OE
ENCODING 338
SWIDTH 848 0
DWIDTH 15 0
BBX 15 9 0 0
BITMAP
3900
65FE
4300
8300
81FC
4100
4100
3300
1FFE
ENDCHAR
STARTCHAR oe
ENCODING 339
SWIDTH 875 0
DWIDTH 16 0
BBX 16 10 0 -1
BITMAP
0030
00C8
3E88
4308
8118
81E0
8100
4680
3C77
0018
ENDCHAR
STARTCHAR Racute
ENCODING 340
SWIDTH 579 0
DWIDTH 10 0
BBX 10 16 0 -1
BITMAP
0200
0400
0800
0000
FF00
8180
A080
2080
2700
3800
1000
1800
1400
1200
1180
0040
ENDCHAR
STARTCHAR racute
ENCODING 341
SWIDTH 346 0
DWIDTH 6 0
BBX 6 12 0 0
BITMAP
08
10
20
00
3C
C0
80
40
40
40
40
20
ENDCHAR
STARTCHAR Rcommaaccent
ENCODING 342
SWIDTH 579 0
DWIDTH 10 0
BBX 10 17 0 -6
BITMAP
FF00
8180
A080
2080
2700
3800
1000
1800
1400
1200
1180
0040
0000
0400
0400
0400
0800
ENDCHAR
STARTCHAR rcommaaccent
ENCODING 343
SWIDTH 346 0
DWIDTH 6 0
BBX 6 14 0 -6
BITMAP
3C
C0
80
40
40
40
40
20
00
00
30
10
30
20
ENDCHAR
STARTCHAR Rcaron
ENCODING 344
SWIDTH 579 0
DWIDTH 10 0
BBX 10 16 0 -1
BITMAP
1300
0C00
0000
0000
FF00
8180
A080
2080
2700
3800
1000
1800
1400
1200
1180
0040
ENDCHAR
STARTCHAR rcaron
ENCODING 345
SWIDTH 346 0
DWIDTH 6 0
BBX 6 11 0 0
BITMAP
4C
30
00
3C
C0
80
40
40
40
40
20
ENDCHAR
STARTCHAR Sacute
ENCODING 346
SWIDTH 627 0
DWIDTH 11 0
BBX 11 15 0 0
BITMAP
0200
0400
0800
0000
0F00
10C0
2000
1000
0800
0600
0180
8040
4020
6060
1FC0
ENDCHAR
STARTCHAR sacute
ENCODING 347
SWIDTH 514 0
DWIDTH 9 0
BBX 9 13 0 0
BITMAP
0400
0C00
1000
0000
0000
7C00
4400
4400
3C00
0300
0080
C180
3F00
ENDCHAR
STARTCHAR Scircumflex
ENCODING 348
SWIDTH 627 0
DWIDTH 11 0
BBX 11 16 0 0
BITMAP
0600
0600
0B00
1100
0000
0F00
10C0
2000
1000
0800
0600
0180
8040
4020
6060
1FC0
ENDCHAR
STARTCHAR scircumflex
ENCODING 349
SWIDTH 514 0
DWIDTH 9 0
BBX 9 13 0 0
BITMAP
0800
0C00
1600
2200
0000
7C00
4400
4400
3C00
0300
0080
C180
3F00
ENDCHAR
STARTCHAR Scedilla
ENCODING 350
SWIDTH 627 0
DWIDTH 11 0
BBX 11 17 0 -6
BITMAP
0F00
10C0
2000
1000
0800
0600
0180
8040
4020
6060
1FC0
1000
0800
0700
0100
1900
0600
ENDCHAR
STARTCHAR scedilla
ENCODING 351
SWIDTH 514 0
DWIDTH 9 0
BBX 9 14 0 -6
BITMAP
7C00
4400
4400
3C00
0300
0080
C180
3F00
2000
1000
0E00
0200
3200
0C00
ENDCHAR
STARTCHAR Scaron
ENCODING 352
SWIDTH 627 0
DWIDTH 11 0
BBX 11 14 0 0
BITMAP
1900
0600
0000
0F00
10C0
2000
1000
0800
0600
0180
8040
4020
6060
1FC0
ENDCHAR
STARTCHAR scaron
ENCODING 353
SWIDTH 514 0
DWIDTH 9 0
BBX 9 11 0 0
BITMAP
3200
0C00
0000
7C00
4400
4400
3C00
0300
0080
C180
3F00
ENDCHAR
STARTCHAR Tcommaaccent
ENCODING 354
SWIDTH 581 0
DWIDTH 10 0
BBX 12 17 0 -6
BITMAP
FFE0
0410
0200
0200
0200
0200
0200
0200
0200
0300
0100
0000
0000
0300
0100
0300
0200
ENDCHAR
STARTCHAR tcommaaccent
ENCODING 355
SWIDTH 328 0
DWIDTH 6 0
BBX 6 17 0 -6
BITMAP
20
20
20
20
FC
20
30
30
30
10
10
00
00
30
10
30
20
ENDCHAR
STARTCHAR Tcaron
ENCODING 356
SWIDTH 581 0
DWIDTH 10 0
BBX 12 14 0 0
BITMAP
1300
0C00
0000
FFE0
0410
0200
0200
0200
0200
0200
0200
0200
0300
0100
ENDCHAR
STARTCHAR tcaron
ENCODING 357
SWIDTH 431 0
DWIDTH 8 0
BBX 7 13 0 0
BITMAP
02
02
22
22
20
20
FC
20
30
30
30
10
10
ENDCHAR
STARTCHAR Utilde
ENCODING 360
SWIDTH 571 0
DWIDTH 10 0
BBX 10 13 0 0
BITMAP
1100
2F00
2000
4100
8100
8100
8100
8080
4080
4080
41C0
2240
1C00
ENDCHAR
STARTCHAR utilde
ENCODING 361
SWIDTH 501 0
DWIDTH 9 0
BBX 9 12 0 0
BITMAP
3100
2E00
4000
8000
8200
8300
8300
4300
4300
6500
3880
0080
ENDCHAR
STARTCHAR Umacron
ENCODING 362
SWIDTH 571 0
DWIDTH 10 0
BBX 10 13 0 0
BITMAP
1E00
1000
0000
4100
8100
8100
8100
8080
4080
4080
41C0
2240
1C00
ENDCHAR
STARTCHAR umacron
ENCODING 363
SWIDTH 501 0
DWIDTH 9 0
BBX 9 11 0 0
BITMAP
3C00
2000
8000
8200
8300
8300
4300
4300
6500
3880
0080
ENDCHAR
STARTCHAR Ubreve
ENCODING 364
SWIDTH 571 0
DWIDTH 10 0
BBX 10 12 0 0
BITMAP
1200
0C00
4100
8100
8100
8100
8080
4080
4080
41C0
2240
1C00
ENDCHAR
STARTCHAR ubreve
ENCODING 365
SWIDTH 501 0
DWIDTH 9 0
BBX 9 11 0 0
BITMAP
2400
1800
8000
8200
8300
8300
4300
4300
6500
3880
0080
ENDCHAR
STARTCHAR Uring
ENCODING 366
SWIDTH 571 0
DWIDTH 10 0
BBX 10 13 0 0
BITMAP
1C00
1200
0C00
4100
8100
8100
8100
8080
4080
4080
41C0
2240
1C00
ENDCHAR
STARTCHAR uring
ENCODING 367
SWIDTH 501 0
DWIDTH 9 0
BBX 9 10 0 0
BITMAP
1C00
A400
9A00
8300
8300
4300
4300
6500
3880
0080
ENDCHAR
STARTCHAR Uhungarumlaut
ENCODING 368
SWIDTH 571 0
DWIDTH 10 0
BBX 10 13 0 0
BITMAP
0A00
1400
0000
4100
8100
8100
8100
8080
4080
4080
41C0
2240
1C00
ENDCHAR
STARTCHAR uhungarumlaut
ENCODING 369
SWIDTH 501 0
DWIDTH 9 0
BBX 9 12 0 0
BITMAP
0A00
1400
0000
8000
8200
8300
8300
4300
4300
6500
3880
0080
ENDCHAR
STARTCHAR Uogonek
ENCODING 370
SWIDTH 571 0
DWIDTH 10 0
BBX 10 12 1 -3
BITMAP
8200
8300
8300
8100
8100
8100
8180
4380
6C80
3900
0200
01C0
ENDCHAR
STARTCHAR uogonek
ENCODING 371
SWIDTH 501 0
DWIDTH 9 0
BBX 9 11 0 -2
BITMAP
8000
8200
8300
8300
4300
4300
6700
3D00
0180
0200
0380
ENDCHAR
STARTCHAR Wcircumflex
ENCODING 372
SWIDTH 703 0
DWIDTH 13 0
BBX 12 16 0 0
BITMAP
0200
0700
0D80
1080
0000
0000
0000
8020
8020
8030
8410
8410
4410
4610
4B30
30E0
ENDCHAR
STARTCHAR wcircumflex
ENCODING 373
SWIDTH 656 0
DWIDTH 12 0
BBX 11 13 0 0
BITMAP
0600
0700
0900
1100
0000
8000
C000
8460
8220
8620
4620
4F60
39C0
ENDCHAR
STARTCHAR Ycircumflex
ENCODING 374
SWIDTH 403 0
DWIDTH 7 0
BBX 7 16 0 0
BITMAP
10
18
2C
44
80
82
42
66
3C
0C
0C
08
08
08
10
08
ENDCHAR
STARTCHAR ycircumflex
ENCODING 375
SWIDTH 487 0
DWIDTH 9 0
BBX 8 22 0 -9
BITMAP
08
1C
36
22
00
81
81
81
41
41
41
27
19
01
01
01
01
01
41
61
32
0C
ENDCHAR
STARTCHAR Ydieresis
ENCODING 376
SWIDTH 403 0
DWIDTH 7 0
BBX 7 13 0 0
BITMAP
6C
80
82
42
66
3C
0C
0C
08
08
08
10
08
ENDCHAR
STARTCHAR Zacute
ENCODING 377
SWIDTH 571 0
DWIDTH 10 0
BBX 10 15 0 0
BITMAP
0200
0C00
0800
0000
7C00
8200
0200
0200
0200
1F80
2400
0800
0800
11C0
1F00
ENDCHAR
STARTCHAR zacute
ENCODING 378
SWIDTH 459 0
DWIDTH 8 0
BBX 8 13 0 0
BITMAP
08
10
20
00
7C
84
04
04
7E
10
20
23
3E
ENDCHAR
STARTCHAR Zdotaccent
ENCODING 379
SWIDTH 571 0
DWIDTH 10 0
BBX 10 14 0 0
BITMAP
0800
0800
0000
7C00
8200
0200
0200
0200
1F80
2400
0800
0800
11C0
1F00
ENDCHAR
STARTCHAR zdotaccent
ENCODING 380
SWIDTH 459 0
DWIDTH 8 0
BBX 8 12 0 0
BITMAP
08
08
00
7C
84
04
04
7E
10
20
23
3E
ENDCHAR
STARTCHAR Zcaron
ENCODING 381
SWIDTH 571 0
DWIDTH 10 0
BBX 10 14 0 0
BITMAP
3200
0C00
0000
7C00
8200
0200
0200
0200
1F80
2400
0800
0800
11C0
1F00
ENDCHAR
STARTCHAR zcaron
ENCODING 382
SWIDTH 459 0
DWIDTH 8 0
BBX 8 12 0 0
BITMAP
6C
18
00
7C
84
04
04
7E
10
20
23
3E
ENDCHAR
STARTCHAR florin
ENCODING 402
SWIDTH 376 0
DWIDTH 7 0
BBX 10 18 -2 -5
BITMAP
0300
0480
0840
0800
0800
0800
0800
3F00
0800
0800
0800
0800
0800
0800
8800
4800
3800
1800
ENDCHAR
STARTCHAR AEacute
ENCODING 508
SWIDTH 960 0
DWIDTH 17 0
BBX 17 16 0 0
BITMAP
002000
004000
0C8000
320000
410000
417F00
40C080
40C000
40C000
40FF00
FFC000
404000
404000
404000
40C100
40FF80
ENDCHAR
STARTCHAR aeacute
ENCODING 509
SWIDTH 881 0
DWIDTH 16 0
BBX 16 13 0 0
BITMAP
0040
0080
0100
0000
1830
06C8
0284
1908
6718
8160
8080
4180
3E7F
ENDCHAR
STARTCHAR Oslashacute
ENCODING 510
SWIDTH 609 0
DWIDTH 11 0
BBX 10 15 0 -2
BITMAP
0400
0600
0800
0000
1A00
6600
4380
82C0
8440
8440
4840
38C0
1F00
1000
1000
ENDCHAR
STARTCHAR oslashacute
ENCODING 511
SWIDTH 487 0
DWIDTH 9 0
BBX 8 11 0 0
BITMAP
04
08
10
01
3E
43
85
8D
89
56
3C
ENDCHAR
STARTCHAR Scommaaccent
ENCODING 536
SWIDTH 627 0
DWIDTH 11 0
BBX 11 17 0 -6
BITMAP
0F00
10C0
2000
1000
0800
0600
0180
8040
4020
6060
1FC0
0000
0000
0400
0400
0400
0800
ENDCHAR
STARTCHAR scommaaccent
ENCODING 537
SWIDTH 514 0
DWIDTH 9 0
BBX 9 14 0 -6
BITMAP
7C00
4400
4400
3C00
0300
0080
C180
3F00
0000
0000
0800
0800
0800
0800
ENDCHAR
STARTCHAR circumflex
ENCODING 710
SWIDTH 375 0
DWIDTH 7 0
BBX 5 4 1 9
BITMAP
20
70
D8
88
ENDCHAR
STARTCHAR caron
ENCODING 711
SWIDTH 375 0
DWIDTH 7 0
BBX 5 2 1 9
BITMAP
D8
30
ENDCHAR
STARTCHAR breve
ENCODING 728
SWIDTH 224 0
DWIDTH 4 0
BBX 4 2 0 7
BITMAP
90
60
ENDCHAR
STARTCHAR dotaccent
ENCODING 729
SWIDTH 152 0
DWIDTH 3 0
BBX 1 2 1 8
BITMAP
80
80
ENDCHAR
STARTCHAR ring
ENCODING 730
SWIDTH 333 0
DWIDTH 6 0
BBX 3 3 2 7
BITMAP
E0
A0
C0
ENDCHAR
STARTCHAR ogonek
ENCODING 731
SWIDTH 254 0
DWIDTH 5 0
BBX 4 4 0 -3
BITMAP
20
40
C0
30
ENDCHAR
STARTCHAR tilde
ENCODING 732
SWIDTH 402 0
DWIDTH 7 0
BBX 7 3 0 7
BITMAP
62
9C
80
ENDCHAR
STARTCHAR hungarumlaut
ENCODING 733
SWIDTH 264 0
DWIDTH 5 0
BBX 5 2 0 8
BITMAP
68
F0
ENDCHAR
STARTCHAR Wgrave
ENCODING 7808
SWIDTH 703 0
DWIDTH 13 0
BBX 12 13 0 0
BITMAP
0600
0300
0000
0000
8020
8020
8030
8410
8410
4410
4610
4B30
30E0
ENDCHAR
STARTCHAR wgrave
ENCODING 7809
SWIDTH 656 0
DWIDTH 12 0
BBX 11 10 0 0
BITMAP
0400
0200
8000
C000
8460
8220
8620
4620
4F60
39C0
ENDCHAR
STARTCHAR Wacute
ENCODING 7810
SWIDTH 703 0
DWIDTH 13 0
BBX 12 13 0 0
BITMAP
0200
0600
0800
0000
8020
8020
8030
8410
8410
4410
4610
4B30
30E0
ENDCHAR
STARTCHAR wacute
ENCODING 7811
SWIDTH 656 0
DWIDTH 12 0
BBX 11 12 0 0
BITMAP
0200
0600
0800
0000
8000
C000
8460
8220
8620
4620
4F60
39C0
ENDCHAR
STARTCHAR Wdieresis
ENCODING 7812
SWIDTH 703 0
DWIDTH 13 0
BBX 12 12 0 0
BITMAP
0D80
0000
0000
8020
8020
8030
8410
8410
4410
4610
4B30
30E0
ENDCHAR
STARTCHAR wdieresis
ENCODING 7813
SWIDTH 656 0
DWIDTH 12 0
BBX 11 9 0 0
BITMAP
0B00
8000
C000
8460
8220
8620
4620
4F60
39C0
ENDCHAR
STARTCHAR Ygrave
ENCODING 7922
SWIDTH 403 0
DWIDTH 7 0
BBX 7 15 0 0
BITMAP
30
18
00
80
82
42
66
3C
0C
0C
08
08
08
10
08
ENDCHAR
STARTCHAR ygrave
ENCODING 7923
SWIDTH 487 0
DWIDTH 9 0
BBX 8 19 0 -9
BITMAP
18
0C
81
81
81
41
41
41
27
19
01
01
01
01
01
41
61
32
0C
ENDCHAR
STARTCHAR endash
ENCODING 8211
SWIDTH 287 0
DWIDTH 5 0
BBX 5 2 0 4
BITMAP
78
C8
ENDCHAR
STARTCHAR emdash
ENCODING 8212
SWIDTH 512 0
DWIDTH 9 0
BBX 9 2 0 4
BITMAP
3F00
E180
ENDCHAR
STARTCHAR quoteleft
ENCODING 8216
SWIDTH 102 0
DWIDTH 2 0
BBX 2 4 0 9
BITMAP
80
80
C0
40
ENDCHAR
STARTCHAR quoteright
ENCODING 8217
SWIDTH 102 0
DWIDTH 2 0
BBX 2 4 0 9
BITMAP
80
80
C0
40
ENDCHAR
STARTCHAR quotesinglbase
ENCODING 8218
SWIDTH 102 0
DWIDTH 2 0
BBX 2 5 0 -1
BITMAP
80
80
C0
40
40
ENDCHAR
STARTCHAR quotedblleft
ENCODING 8220
SWIDTH 234 0
DWIDTH 4 0
BBX 4 5 0 9
BITMAP
A0
90
90
50
50
ENDCHAR
STARTCHAR quotedblright
ENCODING 8221
SWIDTH 234 0
DWIDTH 4 0
BBX 4 5 0 9
BITMAP
A0
90
90
50
50
ENDCHAR
STARTCHAR quotedblbase
ENCODING 8222
SWIDTH 341 0
DWIDTH 6 0
BBX 4 5 1 -2
BITMAP
A0
90
50
50
50
ENDCHAR
STARTCHAR dagger
ENCODING 8224
SWIDTH 375 0
DWIDTH 7 0
BBX 6 12 0 0
BITMAP
20
20
20
10
7C
D0
10
10
10
10
10
10
ENDCHAR
STARTCHAR daggerdbl
ENCODING 8225
SWIDTH 375 0
DWIDTH 7 0
BBX 9 13 -1 0
BITMAP
1000
1800
0800
0800
7F00
A880
0800
FF00
0800
0800
0800
0800
0800
ENDCHAR
STARTCHAR bullet
ENCODING 8226
SWIDTH 341 0
DWIDTH 6 0
BBX 3 3 2 3
BITMAP
E0
E0
C0
ENDCHAR
STARTCHAR ellipsis
ENCODING 8230
SWIDTH 612 0
DWIDTH 11 0
BBX 10 3 1 0
BITMAP
CD80
DDC0
C880
ENDCHAR
STARTCHAR guilsinglleft
ENCODING 8249
SWIDTH 487 0
DWIDTH 9 0
BBX 8 7 0 0
BITMAP
03
04
18
20
40
FC
03
ENDCHAR
STARTCHAR guilsinglright
ENCODING 8250
SWIDTH 403 0
DWIDTH 7 0
BBX 7 8 0 0
BITMAP
C0
38
06
06
0C
18
60
C0
ENDCHAR
STARTCHAR fraction
ENCODING 8260
SWIDTH 309 0
DWIDTH 6 0
BBX 5 14 0 0
BITMAP
08
08
08
08
10
10
10
30
20
20
40
40
C0
80
ENDCHAR
STARTCHAR Euro
ENCODING 8364
SWIDTH 741 0
DWIDTH 13 0
BBX 13 13 0 0
BITMAP
0020
00D0
0100
0780
FFC0
0800
0800
1FC0
F000
1000
1000
0838
07E0
ENDCHAR
STARTCHAR trademark
ENCODING 8482
SWIDTH 1116 0
DWIDTH 20 0
BBX 20 11 0 0
BITMAP
FFD020
043860
020860
020FE0
020B20
020820
021820
021820
021820
031830
011030
ENDCHAR
STARTCHAR minus
ENCODING 8722
SWIDTH 287 0
DWIDTH 5 0
BBX 5 2 0 4
BITMAP
78
C8
ENDCHAR
STARTCHAR commaaccent
ENCODING 63171
SWIDTH 375 0
DWIDTH 7 0
BBX 1 4 2 -6
BITMAP
80
80
80
80
ENDCHAR
STARTCHAR fi
ENCODING 64257
SWIDTH 551 0
DWIDTH 10 0
BBX 8 13 0 0
BITMAP
0C
12
21
24
20
22
22
FE
22
12
12
0B
09
ENDCHAR
STARTCHAR fl
ENCODING 64258
SWIDTH 723 0
DWIDTH 13 0
BBX 8 13 0 0
BITMAP
0C
12
21
22
22
22
22
FE
22
12
12
0A
0A
ENDCHAR
STARTCHAR .notdef
ENCODING -1
SWIDTH 375 0
DWIDTH 7 0
BBX 1 1 0 0
BITMAP
00
ENDCHAR
STARTCHAR .null
ENCODING -1
SWIDTH 0 0
DWIDTH 0 0
BBX 1 1 0 0
BITMAP
00
ENDCHAR
STARTCHAR nonmarkingreturn
ENCODING -1
SWIDTH 375 0
DWIDTH 7 0
BBX 1 1 0 0
BITMAP
00
ENDCHAR
ENDFONT
